<?xml version="1.0" encoding="utf-8"?>
<svg width="24" height="24" viewBox="0 0 24 24" fill="none" xmlns="http://www.w3.org/2000/svg">
  <!-- Tab Icon -->
  <path fill-rule="evenodd" clip-rule="evenodd"
    d="M19 4C20.6569 4 22 5.34315 22 7V17C22 18.6569 20.6569 20 19 20H5C3.34315 20 2 18.6569 2 17V7C2 5.34315 3.34315 4 5 4H19ZM20 9.62479H13.0001C12.4478 9.62479 11.8443 9.20507 11.652 8.68732L10.6542 6H5C4.44772 6 4 6.44772 4 7V17C4 17.5523 4.44772 18 5 18H19C19.5523 18 20 17.5523 20 17V9.62479Z"
    fill="#000000" />

  <!-- Bookmark Icon (bottom-left) -->
  <path d="M6 14C6 13.4477 6.44772 13 7 13H10C10.5523 13 11 13.4477 11 14V19L8.5 17.5L6 19V14Z"
    fill="#000000" />

  <!-- Close Icon (bottom-right) -->
  <circle cx="18" cy="18" r="2.5" fill="#000000" />
  <path d="M17.25 17.25L18.75 18.75M18.75 17.25L17.25 18.75" stroke="#ffffff" stroke-width="1.5"
    stroke-linecap="round" />
</svg>